<?xml version="1.0" encoding="UTF-8"?>
<svg width="117px" height="140px" viewBox="0 0 117 140" version="1.1" xmlns="http://www.w3.org/2000/svg" xmlns:xlink="http://www.w3.org/1999/xlink">
  <g transform="translate(3.000000, 3.000000)">
      <path d="M77.729056,0.701111838 C81.4683192,1.94753288 83.9989316,4.55368598 85.3208933,8.51957112 L85.4412862,8.89535644 L91.731,17.702 L92.2890595,17.4812339 C92.5524337,17.3767538 92.7962234,17.2295609 93.0108044,17.0460152 L93.1661131,16.9016392 L93.6778719,16.3848767 C93.9256256,16.1347006 94.2653038,15.9973341 94.6173145,16.0049787 C97.9407012,16.0770148 100.507479,16.9307629 102.317647,18.566223 C104.122746,20.1971027 105.318133,22.3506117 105.903808,25.0267501 C105.957672,25.2728724 106.102015,25.4879974 106.305707,25.6311272 L106.412354,25.6965028 L106.622523,25.8140158 C108.493639,26.9154311 109.811622,29.203875 110.576471,32.6793474 C111.295311,35.9457566 111.099106,38.9041685 109.987856,41.554583 C109.656451,42.345062 108.91739,42.8827271 108.07311,42.9620306 L107.902941,42.9717189 L107.044378,42.9890262 C106.75724,42.9948145 106.473629,43.0487516 106.205241,43.1481083 L106.006988,43.2310995 L91.4281241,50.0649418 C90.8984722,50.3132162 90.3020276,50.3721757 89.7375551,50.2360567 L89.5275696,50.1758565 L88.4914932,49.8304977 C87.9221081,49.6407027 87.4709314,49.206451 87.2574229,48.6515542 L87.2051756,48.4973205 L82.7536634,33.358004 C82.2975881,31.80692 81.1391241,30.5662053 79.6342415,30.0012578 L79.4059554,29.9216296 L76.3858561,28.9471616 C75.6114574,28.6972934 75.0710187,28.0058971 75.0064888,27.205272 L75,27.043789 L75,25.2110833 C75,24.7289508 75.269738,24.2915813 75.6912709,24.0726473 L75.8099093,24.0184842 L82.258,21.46 L77.263,18.405 L77.2470416,18.4392413 C73.1645258,15.9897319 70.6165221,15.8113002 69.6030304,17.9039464 L69.5348114,18.0536298 C69.0217152,19.2508542 67.8094536,22.1914032 68.5707827,27.2119032 C69.2398737,31.6241502 71.9448834,42.6363636 73.3909265,45.0464356 C74.8369697,47.4565075 80.139128,50.8306082 79.1750992,60.470896 C78.2110704,70.1111838 69.052797,78.7874428 67.6067539,81.1975147 C66.1607107,83.6075867 67.1247395,83.6075867 65.1966819,85.5356442 C64.4093076,86.3230185 63.6219334,86.6280745 62.867387,86.7462637 C63.4562247,92.0722978 63.7506388,95.0427785 63.7506388,95.6579464 C63.7506388,96.1818421 63.9641698,97.2395655 64.3912319,98.8311166 C64.5683105,99.4910431 65.0798448,100.003945 65.7301686,100.187146 L65.882618,100.223488 L66.3542954,100.316193 C75.2409659,102.067089 79.8359101,103.245755 80.139128,103.852191 C80.394587,104.363109 80.0407967,104.975569 79.0777571,105.68957 C79.0630835,105.700449 79.048722,105.711743 79.03469,105.723438 C78.6571425,106.03811 78.5810505,106.580304 78.8397009,106.983554 L78.9113565,107.08126 L79.1084509,107.319689 C80.7130049,109.278667 81.3779069,110.532907 81.1031568,111.082407 C80.8412509,111.606218 79.0851076,111.916568 75.8347267,112.013454 C75.7373503,112.016357 75.6403339,112.026636 75.5445111,112.044202 C74.5470046,112.227067 73.8705541,113.147089 73.9742559,114.139063 L73.9957197,114.288316 L74.0349897,114.518817 C74.2469169,115.870225 74.0322291,116.652812 73.3909265,116.866579 C72.4691264,117.173846 68.0216411,112.780199 60.0484707,103.685639 C59.4392357,102.990718 59.2013423,102.049978 59.3991467,101.155195 L59.4482257,100.964266 L59.5663571,100.533115 C59.858495,99.384115 59.9678839,98.2410731 59.8945237,97.1039895 C59.7901895,95.4868104 59.235277,92.3538333 58.2297862,87.7050584 C55.6430011,88.9442826 50.8159881,91.5880013 45.434092,95.175932 C40.9576496,98.1602269 37.6630597,100.803591 35.5503223,103.106024 L35.357,103.319 L36.757833,116.384565 C49.2902071,122.490081 55.2350512,126.024853 54.5923654,126.988882 C54.0542927,127.795991 52.3900001,128.03999 49.5994875,127.720879 C48.6675763,127.61431 47.8026969,128.192851 47.5353374,129.076665 L47.496401,129.226729 L47.4305651,129.523881 C46.9257456,131.75893 46.420926,133.002659 45.9161064,133.255069 C45.3681824,133.529031 43.185288,132.868724 39.3674232,131.274148 C39.3391249,131.262329 39.3105486,131.251187 39.2817187,131.240731 C38.328349,130.894965 37.2799436,131.347606 36.8686379,132.256233 L36.8118118,132.395904 L36.7427758,132.575009 C36.2451581,133.789349 35.4468198,134.176707 34.3477611,133.737083 C33.2587789,133.30149 33.439404,130.662969 33.3837323,125.060824 C33.3666752,123.3444 33.2159681,120.134277 32.9316109,115.430453 L32.9017179,114.938522 L30.5277446,102.598229 C30.3103899,102.534202 30.1376855,102.470175 30.0096316,102.406148 C29.0670257,101.934845 27.2027606,99.1593941 24.4168365,93.6292067 L24.0567701,92.9094861 C21.3795455,87.5222906 22.478056,88.9043217 20.3693438,85.0536298 C18.2175966,81.1243524 15.5491999,79.7514716 13.139128,73.0032701 C10.729056,66.2550687 12.3946199,67.9356219 10.2470416,63.8449967 C8.09946341,59.7543715 5.48621796,59.4846096 3.01682582,53.7226946 C0.547433676,47.9607796 -0.357274902,41.6723349 0.124739487,40.2262917 C0.606753875,38.7802485 1.57078265,37.3342054 4.94488337,37.3342054 C8.31898409,37.3342054 13.2381282,40.8535597 18.4412862,42.1543492 C22.2974014,43.118378 38.6858906,39.2622629 45.434092,38.7802485 C49.932893,38.4589056 53.1463222,38.2982341 55.0743798,38.2982341 C56.3080729,35.4982335 57.1114302,32.6061471 57.4844517,29.6219751 C58.043984,25.1457172 56.4668014,17.8931178 58.9304949,11.7874428 C60.5729572,7.71699275 63.7863864,4.50356349 68.5707827,2.147155 C70.8201831,-0.102245476 73.8729409,-0.584259865 77.729056,0.701111838 Z" id="Border" stroke="#000000" stroke-width="5"></path>
      <path d="M85.4412862,8.89535644 L93.8525452,20.671119 C94.471469,21.5376124 94.2707743,22.7417809 93.404281,23.3607047 C93.3560672,23.3951431 93.3062916,23.4273407 93.2551126,23.4571951 L89.7948179,25.4757004 C89.4884555,25.6544118 89.1087049,25.6504649 88.8061231,25.4654245 L76.7650273,18.1018313 L76.7650273,18.1018313 L79.6571136,8.89535644 L85.4412862,8.89535644 Z" id="Bill-Bottom" fill="#F0842B"></path>
      <path d="M75,25.2110833 L75,27.043789 C75,27.9117486 75.5598308,28.6806355 76.3858561,28.9471616 L79.4059554,29.9216296 C81.0215218,30.4429097 82.2747843,31.7293658 82.7536634,33.358004 L87.2051756,48.4973205 C87.3898762,49.1254758 87.8703458,49.6234486 88.4914932,49.8304977 L89.5275696,50.1758565 C90.1518728,50.3839576 90.8322657,50.3442505 91.4281241,50.0649418 L106.006988,43.2310995 C106.332044,43.0787294 106.685455,42.9962615 107.044378,42.9890262 L107.902941,42.9717189 C108.817037,42.9532922 109.634357,42.3977606 109.987856,41.554583 C111.099106,38.9041685 111.295311,35.9457566 110.576471,32.6793474 C109.783294,29.0751538 108.395252,26.7475451 106.412344,25.6965212 L106.412354,25.6965028 C106.152642,25.5588446 105.966649,25.3138928 105.903808,25.0267501 C105.318133,22.3506117 104.122746,20.1971027 102.317647,18.566223 C100.507479,16.9307629 97.9407012,16.0770148 94.6173145,16.0049787 C94.2653038,15.9973341 93.9256256,16.1347006 93.6778719,16.3848767 L93.1661131,16.9016392 C92.9168942,17.1532949 92.6182772,17.3506338 92.2890595,17.4812339 L75.8099093,24.0184842 C75.3210105,24.2124296 75,24.6851205 75,25.2110833 Z" id="Bread" fill="#985321"></path>
      <path d="M85.4412862,8.89535644 L93.8737605,20.7008204 C94.4844157,21.5557377 94.2864022,22.7438189 93.4314849,23.354474 C93.3859528,23.386997 93.3390078,23.4174952 93.290787,23.4458797 L92.0059025,24.2022079 C91.6951733,24.3851141 91.3083486,24.3793306 91.0032264,24.1872166 L78,16 L78,16 L79.6571136,8.89535644 L85.4412862,8.89535644 Z" id="Bill-Top" fill="#F0842B"></path>
      <path d="M30.491646,102.406148 L32.9017179,114.938522 C33.2054156,119.911113 33.366087,123.285213 33.3837323,125.060824 C33.439404,130.662969 33.2587789,133.30149 34.3477611,133.737083 C35.499156,134.197641 36.3205084,133.750582 36.8118183,132.395906 L36.8118118,132.395904 C37.1748655,131.394866 38.2806805,130.877677 39.2817187,131.240731 C39.3105486,131.251187 39.3391249,131.262329 39.3674232,131.274148 C43.185288,132.868724 45.3681824,133.529031 45.9161064,133.255069 C46.4428746,132.991685 46.9696429,131.648905 47.4964112,129.226731 L47.496401,129.226729 C47.7068061,128.259248 48.6158034,127.608389 49.5994875,127.720879 C52.3900001,128.03999 54.0542927,127.795991 54.5923654,126.988882 C55.2350512,126.024853 49.2902071,122.490081 36.757833,116.384565 L35.3117898,102.888162 L30.491646,102.406148 Z" id="Right-Foot" fill="#F0842B"></path>
      <path d="M57.9664661,86.499673 C59.1387268,91.8159964 59.7814126,95.3507686 59.8945237,97.1039895 C59.9770539,98.3832085 59.8282924,99.6699686 59.448239,100.96427 L59.4482257,100.964266 C59.1692521,101.914332 59.395719,102.941081 60.0484707,103.685639 C68.0216411,112.780199 72.4691264,117.173846 73.3909265,116.866579 C74.0678571,116.640936 74.2694543,115.781515 73.9957184,114.288316 L73.9957197,114.288316 C73.8037117,113.240934 74.4971292,112.23621 75.5445111,112.044202 C75.6403339,112.026636 75.7373503,112.016357 75.8347267,112.013454 C79.0851076,111.916568 80.8412509,111.606218 81.1031568,111.082407 C81.3888969,110.510927 80.6583093,109.1772 78.9113941,107.081229 L78.9113565,107.08126 C78.570462,106.67225 78.6256803,106.064333 79.03469,105.723438 C79.048722,105.711743 79.0630835,105.700449 79.0777571,105.68957 C80.0407967,104.975569 80.394587,104.363109 80.139128,103.852191 C79.8305905,103.235116 75.0784189,102.025557 65.8826131,100.223513 L65.882618,100.223488 C65.1605215,100.081983 64.581932,99.5418067 64.3912319,98.8311166 C63.9641698,97.2395655 63.7506388,96.1818421 63.7506388,95.6579464 C63.7506388,95.0152605 63.4292958,91.8018313 62.78661,86.0176586 L57.9664661,86.499673 Z" id="Left-Foot" fill="#F0842B"></path>
      <path d="M45.434092,95.175932 C52.407012,90.5273187 58.4484805,87.4637018 59.8945237,86.9816874 C61.3405668,86.499673 63.2686244,87.4637018 65.1966819,85.5356442 C67.1247395,83.6075867 66.1607107,83.6075867 67.6067539,81.1975147 C69.052797,78.7874428 78.2110704,70.1111838 79.1750992,60.470896 C80.139128,50.8306082 74.8369697,47.4565075 73.3909265,45.0464356 C71.9448834,42.6363636 69.2398737,31.6241502 68.5707827,27.2119032 C67.8094536,22.1914032 69.0217152,19.2508542 69.5348114,18.0536298 C70.4988402,15.8042293 73.0695836,15.9327665 77.2470416,18.4392413 C79.4964421,13.683366 80.9424853,10.9840855 81.5851711,10.3413996 C82.227857,9.69871376 83.5132287,9.21669937 85.4412862,8.89535644 C84.1559145,4.71789841 81.5851711,1.98648354 77.729056,0.701111838 C73.8729409,-0.584259865 70.8201831,-0.102245476 68.5707827,2.147155 C63.7863864,4.50356349 60.5729572,7.71699275 58.9304949,11.7874428 C56.4668014,17.8931178 58.043984,25.1457172 57.4844517,29.6219751 C57.1114302,32.6061471 56.3080729,35.4982335 55.0743798,38.2982341 C53.1463222,38.2982341 49.932893,38.4589056 45.434092,38.7802485 C38.6858906,39.2622629 22.2974014,43.118378 18.4412862,42.1543492 C13.2381282,40.8535597 8.31898409,37.3342054 4.94488337,37.3342054 C1.57078265,37.3342054 0.606753875,38.7802485 0.124739487,40.2262917 C-0.357274902,41.6723349 0.547433676,47.9607796 3.01682582,53.7226946 C5.48621796,59.4846096 8.09946341,59.7543715 10.2470416,63.8449967 C12.3946199,67.9356219 10.729056,66.2550687 13.139128,73.0032701 C15.5491999,79.7514716 18.2175966,81.1243524 20.3693438,85.0536298 C22.521091,88.9829073 21.3333726,87.4637018 24.2254589,93.2478744 C27.1175452,99.0320471 29.0456028,101.924133 30.0096316,102.406148 C30.6523174,102.727491 32.4197035,103.048834 35.3117898,103.370177 C37.411378,101.006422 40.7854787,98.2750075 45.434092,95.175932 Z" id="Body" fill="#FFFFFF"></path>
      <ellipse id="Eye" fill="#000000" cx="76.0420057" cy="7.93132767" rx="1.20503597" ry="1.44604317"></ellipse>
  </g>
</svg>
